<?xml version="1.0" encoding="UTF-8"?>
<svg version="1.1" viewBox="0 0 513.69 491.95" xmlns="http://www.w3.org/2000/svg" xmlns:cc="http://creativecommons.org/ns#" xmlns:dc="http://purl.org/dc/elements/1.1/" xmlns:rdf="http://www.w3.org/1999/02/22-rdf-syntax-ns#">
<metadata>image/svg+xml
<rdf:RDF>
<cc:Work rdf:about="">
<dc:format>image/svg+xml</dc:format>
<dc:type rdf:resource="http://purl.org/dc/dcmitype/StillImage"/>
<dc:title/>
<cc:license rdf:resource="http://creativecommons.org/publicdomain/zero/1.0/"/>
</cc:Work>
<cc:License rdf:about="http://creativecommons.org/publicdomain/zero/1.0/">
<cc:permits rdf:resource="http://creativecommons.org/ns#Reproduction"/>
<cc:permits rdf:resource="http://creativecommons.org/ns#Distribution"/>
<cc:permits rdf:resource="http://creativecommons.org/ns#DerivativeWorks"/>
</cc:License>
</rdf:RDF>
</metadata>
<g transform="matrix(-.26597 -.26597 .63372 -.63372 38.736 548.75)">
<metadata>image/svg+xml</metadata>
<path d="m58.955 347.23c-67.992-104.38 14.106-113.71-6.8357-256.61 51.357 67.417 65.696 150.11 87.256 174.57 14.88 19.209 22.219 42.395 20.218 66.217-0.20173 18.854 23.625 41.698 17.11 59.3-34.644-27.749-94.233-9.6623-117.75-43.478z" fill="#e73900" fill-rule="evenodd" stroke-width="1pt"/>
<path d="m161.78 377.71c0.39303-19.99-23.796-28.662-33.526-44.274-16.115-11.925-21.219-30.487-21.575-48.766-1.3098-29.234 24.748-203.54 62.711-250.36-14.548 71.886 21.569 167.64 43.883 199.32 15.1 24.614 20.776 52.953 15.337 80.838-2.6722 22.247-21.101 35.615-31.071 55.569-9.9725 12.017-23.544 13.155-35.76 7.6689z" fill="#e73900" fill-rule="evenodd" stroke-width="1pt"/>
<path d="m175.56 387.49c5.7866-17.367-5.6649-44.895-9.2709-61.002-9.7833-14.504-8.838-32.016-4.1256-48.078 6.9367-25.875 8.0819-147.98 120.03-205.32-86.818 85.183-29.17 154.41-19.772 187.75 5.4905 25.333 2.6838 51.737-9.6975 74.52-17.094 31.454-62.733 48.789-77.159 52.137z" fill="#e73900" fill-rule="evenodd" stroke-width="1pt"/>
<path d="m157.12 377.31c0.29729-16.32-17.999-23.4-25.359-36.145-12.189-9.7354-16.05-24.889-16.319-39.812-0.99071-23.866 23.326-150.05 42.827-204.39-13.307 123.18 20.921 136.86 37.799 162.72 11.421 20.094 15.715 43.23 11.601 65.995-2.0212 18.162-10.734 34.717-18.275 51.007-7.543 9.8103-23.035 5.0987-32.274 0.61963z" fill="#e78c00" fill-rule="evenodd" stroke-width="1pt"/>
<path d="m86.963 353.93c-69.841-71.705 6.2567-76.698-13.112-175.17 23.003 46.417 42.078 81.286 50.454 114.24 12.395 11.638 55.225 82.683 52.658 95.564-26.992-15.367-69.89-13.986-90-34.633z" fill="#e78c00" fill-rule="evenodd" stroke-width="1pt"/>
<path d="m100.91 349.61c-41.778-39.659-10.578-62.945-10.952-112.48 11.549 43.353 48.08 54.035 47.611 80.078 6.0349 7.7903 37.634 63.345 34.992 70.483-14.05-11.254-55.822-23.055-71.651-38.081z" fill="#e7e100" fill-rule="evenodd" stroke-width="1pt"/>
<path d="m168.06 344.26c-7.3404-10.882-6.6311-24.022-3.0954-36.073 5.2046-19.414 28.071-127.32 60.738-150.79-23.591 44.36 7.4298 112.6 14.481 137.61 4.1195 19.007 5.2716 41.49-7.276 55.912-18.955 21.787-42.882 34.475-56.29 37.517-8.5236 5.9815-5.8523-32.084-8.5579-44.169z" fill="#e78c00" fill-rule="evenodd" stroke-width="1pt"/>
<path d="m156.26 378.51c0.58986-9.9844-10.435-14.776-14.623-22.764-7.2194-6.2651-9.2046-15.64-8.9964-24.783-0.0101-14.637-0.50958-105.88 18.026-128.56-8.2039 35.656 22.691 88.808 32.379 105.06 6.4904 12.588 8.5411 26.86 5.4534 40.695-1.6914 11.069-7.4395 20.987-12.463 30.772-4.8634 5.8179-14.231 2.546-19.776-0.42721z" fill="#e7e100" fill-rule="evenodd" stroke-width="1pt"/>
<path d="m165.08 379.78c4.7458-6.9504-1.1375-15.179-0.70358-22.755-2.4994-7.6452 0.12405-15.27 4.2304-21.778 6.3258-10.568 17.442-89.101 40.633-97.45-21.349 22.183 15.724 81.495 15.681 97.418-0.76264 11.893-15.23 27.967-23.445 36.615-6.0102 7.2569-17.905 14.231-25.764 19.119-6.0272-3.6638-7.9168-6.6232-10.632-11.168z" fill="#e7e100" fill-rule="evenodd" stroke-width="1pt"/>
<path d="m157.08 371.83c-14.756-23.241-9.2815-49.17-3.0063-77.451 2.8586 19.189 14.767 42.476 21.498 50.112 4.6459 5.9972 6.9372 13.236 6.3125 20.674-0.063 5.8864-3.0512 13.019-5.0854 18.515-10.816-8.6636-12.377-1.2918-19.719-11.85z" fill="#ffff9e" fill-rule="evenodd" stroke-width="1pt"/>
<path d="m173.67 360.31c11.431-25.045 0.11491-44.761 26.314-64.409-7.8236 18.215 10.07 46.976 8.1227 56.948-3.2743 16.772-25.885 29.254-31.601 30.547 1.3617-13.791-7.6802-11.174-2.836-23.087z" fill="#ffff9e" fill-rule="evenodd" stroke-width="1pt"/>
</g>
<g transform="matrix(1.4939 1.5212 -1.5212 1.4939 -120.8 -819.4)" stroke-width="3">
<path d="m481.67 67.248c-8.024 6.9424-69.699 65.129-22.982 176.56h46.713c46.717-111.43-14.957-169.6-22.982-176.55l-0.74918-0.0088z" fill="#ececec" fill-rule="evenodd" stroke="#000"/>
<path d="m483.6 139.39c-9.7186 0-17.623 8.6017-17.623 19.167 0 10.565 7.9044 19.158 17.623 19.158 9.7187 0 17.631-8.5929 17.631-19.158 0-10.565-7.9125-19.167-17.631-19.167zm0 2.2664c8.5906 0 15.546 7.5616 15.546 16.9s-6.9558 16.892-15.546 16.892c-8.5906 0-15.538-7.5528-15.538-16.892 3e-5 -9.3388 6.9477-16.9 15.538-16.9z" fill="#ccc" stroke-linecap="round"/>
<path d="m450.56 113 11.32-22.608 15.795-19.46 4.4752-3.7202 16.848 19.174 13.162 23.18 1.053 4.865-62.916-0.28618" fill="#f00" fill-rule="evenodd" stroke="#000"/>
<path d="m444.25 199.13s-27.904-0.37778-11.056 76.694c0 0 1.5795-64.354 16.321-56.42" fill="#f00" fill-rule="evenodd" stroke="#000"/>
<path d="m519.92 199.13s27.904-0.37778 11.056 76.694c0 0-1.5795-64.354-16.321-56.42" fill="#f00" fill-rule="evenodd" stroke="#000"/>
<path d="m451.88 228.04 6.8444 15.74 46.858-0.28619 5.5281-15.453z" fill="#b3b3b3" fill-rule="evenodd" stroke="#000"/>
<path d="m526.38 206.86-5.2649 14.309-3.1589-2.8618-3.6855 1.717 5.0017-21.463 8.9504 4.865s15.531 11.733 3.4222 70.113c7.1076-60.383-5.5282-66.678-5.265-66.678z" fill="#d20000" fill-rule="evenodd"/>
<path d="m432.4 274.97s-2.6219-62.43 15.268-62.672c1.9742-0.0267 1.8427 6.8681 1.8427 6.8681l-7.1076 1.717-5.5281 18.887z" fill="#d20000" fill-rule="evenodd"/>
<path d="m493.94 228.04c1.0562 3.4591 1.6804 8.2858 1.3763 15.165 0.2247 0.0861 0.4627 0.20685 0.70849 0.34527l9.5526-0.062 4.4546-12.447c-0.17968-1.0635-0.38726-2.0128-0.5863-3.0012z" fill="#999" fill-rule="evenodd"/>
<path d="m488.19 196.78c-1.7769-0.1431-2.8992 0.15936-2.8992 0.15936l-1.3193 22.035s6.3418-1.3614 9.3327 8.0208h15.538c-5.0468-25.584-15.549-29.804-20.653-30.215z" fill="#ccc" fill-rule="evenodd"/>
<path d="m452.62 229.32 5.212 14.165 7.2968 0.56662-2.0848-16.148z" fill="#ccc" fill-rule="evenodd"/>
<path d="m450.56 113.57h61.863" fill="none" stroke="#000"/>
<path d="m498.63 156.85a16.584 18.029 0 1 1-33.169 0 16.584 18.029 0 1 1 33.169 0z" fill="#b3b3b3" stroke="#000" stroke-linecap="round"/>
<path d="m492.84 156.85a10.793 11.733 0 1 1-21.586 0 10.793 11.733 0 1 1 21.586 0z" fill="#80e5ff" stroke="#000" stroke-linecap="round"/>
<path d="m453.68 228h58.44" fill="none" stroke="#000"/>
<path d="m479.67 198.56h4.7384v77.267h-4.7384z" fill="#f00" stroke="#000" stroke-linecap="round"/>
<path d="m509.36 226.15s21.06-52.656 4.212-103.31c0.78974 89.858-21.849 103.31-21.849 103.31z" fill="#ccc" fill-rule="evenodd"/>
<rect transform="matrix(.18343 .20123 -.18343 .20123 291.75 87.848)" x="672.6" y="-389.67" width="34.47" height="83.714" fill="#fff" stroke-linecap="round"/>
<path d="m492.84 156.85a10.793 11.733 0 1 1-21.586 0 10.793 11.733 0 1 1 21.586 0z" fill="none" stroke="#000" stroke-linecap="round"/>
<path d="m506.11 109.28s-8.1607-23.18-23.692-35.486c14.215 29.762 6.8444 35.486 6.8444 35.486z" fill="#d20000" fill-rule="evenodd"/>
<path d="m519.92 199.13s27.904-0.37778 11.056 76.694c0 0-1.5795-64.354-16.321-56.42" fill="none" stroke="#000"/>
<path d="m444.25 199.13s-27.904-0.37778-11.056 76.694c0 0 1.5795-64.354 16.321-56.42" fill="none" stroke="#000"/>
<path d="m454.25 108.42s13.952-29.476 25.535-37.203c11.583-7.7267-25.272 37.775-25.535 37.203z" fill="#fff" fill-rule="evenodd"/>
<path d="m446.03 186.74c-0.8245-0.49765-5.9219-41.35 6.7011-66.777 7.7833-6.8102 18.373-3.2287 17.87-0.40473-4.359 24.463-19.667 70.142-24.571 67.182z" fill="#fff" fill-rule="evenodd"/>
<path d="m481.67 67.248c-8.024 6.9424-69.699 65.129-22.982 176.56h46.713c46.717-111.43-14.957-169.6-22.982-176.55l-0.74918-0.0088z" fill="none" stroke="#000"/>
</g>
<g transform="matrix(2.1321 0 0 2.1321 -686.54 -194.38)" fill="#ffff9e" fill-rule="evenodd" stroke-width="1pt"></g>
</svg>
